<svg xmlns="http://www.w3.org/2000/svg" aria-labelledby="title desc" role="img" fill="none" viewBox="0 0 1200 360" height="360" width="1200">
  <title id="title">Puchica Logo</title>
  <desc id="desc">Puchica ecommerce logo with purple shopping bag P icon and dark indigo wordmark.</desc>

  <defs>
    <linearGradient gradientUnits="userSpaceOnUse" y2="282" x2="258" y1="42" x1="80" id="puchica-violet">
      <stop stop-color="#8A78FA" offset="0"></stop>
      <stop stop-color="#6D4CFF" offset="0.42"></stop>
      <stop stop-color="#3A2CCF" offset="1"></stop>
    </linearGradient>

    <linearGradient gradientUnits="userSpaceOnUse" y2="300" x2="198" y1="250" x1="97" id="puchica-fold">
      <stop stop-color="#241B9B" offset="0"></stop>
      <stop stop-color="#6D4CFF" offset="1"></stop>
    </linearGradient>

    <filter height="150%" width="140%" y="-20%" x="-20%" id="soft-shadow">
      <feDropShadow flood-opacity="0.16" flood-color="#160F3A" stdDeviation="18" dy="14" dx="0"></feDropShadow>
    </filter>
  </defs>

  <g filter="url(#soft-shadow)">
    <path stroke-linecap="round" stroke-width="18" stroke="#6D4CFF" d="M118 104V82C118 43.9 148.9 13 187 13C225.1 13 256 43.9 256 82V104"></path>

    <path fill="url(#puchica-violet)" d="M72 103C72 91.95 80.95 83 92 83H238C301.5 83 353 134.5 353 198C353 261.5 301.5 313 238 313H163V336C163 350.9 146.7 360.1 133.9 352.4L81.7 321.1C75.7 317.5 72 311 72 304V103Z"></path>

    <path opacity="0.95" fill="url(#puchica-fold)" d="M72 304C111 278 134 270 163 269V336C163 350.9 146.7 360.1 133.9 352.4L81.7 321.1C75.7 317.5 72 311 72 304Z"></path>

    <path stroke-linecap="round" stroke-width="18" stroke="white" d="M139 174C139 227 169 255 207 255C245 255 275 227 275 174"></path>
    <circle fill="white" r="14" cy="174" cx="139"></circle>
    <circle fill="white" r="14" cy="174" cx="275"></circle>
  </g>

  <text letter-spacing="-6" font-weight="800" font-size="150" font-family="Outfit, Poppins, Inter, Arial, sans-serif" fill="#160F3A" y="244" x="410">Puchica</text>
</svg>